# xmcd
#
# Track frame offsets: 
#        150
#        24108
#        47623
#        59583
#        76081
#        96630
#        119371
#        144888
#        174449
#        197125
#        221979
#        237869
#        252546
#        265895
#        279056
#        290681
#        304917
#        318019
#        330719
#        343874
#
# Disc length: 4772 seconds
#
# Revision: 2
# Processed by: cddbd v1.5.2PL0 Copyright (c) Steve Scherf et al.
# Submitted via: ExactAudioCopyFreeDBPlugin 1.0
#
DISCID=2a12a214
DTITLE=Jimmy Rushing, Tampa Red - ABC Of The Blues - Vol. 38 Rushing, 
DTITLE=Red
DYEAR=2010
DGENRE=Blues
TTITLE0=Jimmy Rushing - Good Morning Blues
TTITLE1=Jimmy Rushing - See See Rider
TTITLE2=Jimmy Rushing - Take Me Back, Baby
TTITLE3=Jimmy Rushing - Sent For You Yesterday
TTITLE4=Jimmy Rushing - Roll'em Pete
TTITLE5=Jimmy Rushing - My Friend Mr. Blues
TTITLE6=Jimmy Rushing - Every Day
TTITLE7=Jimmy Rushing - Sometimes I Think I Do
TTITLE8=Jimmy Rushing - Take Me With You, Baby
TTITLE9=Jimmy Rushing - Evenin'
TTITLE10=Tampa Red - You Missed A Good Man
TTITLE11=Tampa Red - She Want To Sell My Monkey
TTITLE12=Tampa Red - She's Love Crazy
TTITLE13=Tampa Red - Hard Road Blues
TTITLE14=Tampa Red - Let Me Play With Your Poodle
TTITLE15=Tampa Red - Crying Won't Help You
TTITLE16=Tampa Red - Sweet Little Angel
TTITLE17=Tampa Red - But I Forgive You
TTITLE18=Tampa Red - So Much Trouble
TTITLE19=Tampa Red - Big Stars Falling Blues
EXTD=
EXTT0=
EXTT1=
EXTT2=
EXTT3=
EXTT4=
EXTT5=
EXTT6=
EXTT7=
EXTT8=
EXTT9=
EXTT10=
EXTT11=
EXTT12=
EXTT13=
EXTT14=
EXTT15=
EXTT16=
EXTT17=
EXTT18=
EXTT19=
PLAYORDER=
